<svg xmlns="http://www.w3.org/2000/svg" viewBox="0 0 100 125">
  <path d="M49.517 55.45L74.78 43.21c3.64-1.64 1.27-6.92-2.552-5.226L50.766 47.65V22.258c0-3.987-6.024-3.805-6.024 0l.09 30.417c0 2.274 2.456 3.914 4.685 2.776z"/>
  <path d="M49.618 0C22.215 0 0 22.214 0 49.616 0 77.02 22.215 99.233 49.618 99.233c27.4 0 49.614-22.214 49.614-49.617C99.232 22.214 77.02 0 49.618 0zm0 93.566c-24.27 0-43.95-19.68-43.95-43.95 0-24.272 19.68-43.95 43.95-43.95s43.95 19.678 43.95 43.95c0 24.272-19.678 43.95-43.95 43.95zm0-43.95"/>
</svg>
